<svg width="190" height="189" viewBox="0 0 190 189" fill="none" xmlns="http://www.w3.org/2000/svg">
<path d="M5.59717 0C2.53981 0.0086851 0.0643586 2.48413 0.0556868 5.54148V183.424C0.0470017 186.49 2.52247 188.991 5.59717 189H183.479H183.471C184.956 189.009 186.381 188.418 187.431 187.376C188.474 186.325 189.064 184.9 189.056 183.424V5.54154C189.047 2.46685 186.545 -0.00860496 183.471 6.67964e-05L5.59717 0ZM11.1733 11.1176H59.3439V59.2882H11.1733V11.1176ZM70.4615 11.1176H118.65V59.2882H70.4615V11.1176ZM129.759 11.1176H177.938V59.2882H129.767L129.759 11.1176ZM11.1733 70.4147H59.3439V118.585L11.1733 118.594V70.4147ZM70.4615 70.4147H118.641V118.585L70.4615 118.594V70.4147ZM129.759 70.4147H177.929V118.585L129.767 118.594L129.759 70.4147ZM11.1644 129.703H59.335V177.873L11.1733 177.882L11.1644 129.703ZM70.4526 129.703H118.632V177.873L70.4615 177.882L70.4526 129.703ZM129.75 129.703H177.92V177.873L129.767 177.882L129.75 129.703Z" fill="lightgray"/>
</svg>
